<svg width="123" height="10" viewBox="0 0 123 10" fill="none" xmlns="http://www.w3.org/2000/svg">
<path d="M1.2334 9.8482H0L3.56736 0.132827H4.78178L8.34915 9.8482H7.11575L4.21252 1.66983H4.13662L1.2334 9.8482ZM1.6888 6.05313H6.66034V7.09677H1.6888V6.05313Z" fill="white"/>
<path d="M10.4483 9.8482L8.22818 2.56167H9.40465L10.9796 8.14042H11.0555L12.6115 2.56167H13.8069L15.3439 8.12144H15.4198L16.9948 2.56167H18.1713L15.9511 9.8482H14.8506L13.2566 4.25047H13.1428L11.5489 9.8482H10.4483Z" fill="white"/>
<path d="M22.4585 10C21.7564 10 21.1508 9.84503 20.6416 9.5351C20.1356 9.22201 19.745 8.78558 19.4699 8.22581C19.1979 7.66287 19.0619 7.00822 19.0619 6.26186C19.0619 5.5155 19.1979 4.85769 19.4699 4.28843C19.745 3.716 20.1277 3.27008 20.6179 2.95066C21.1112 2.62808 21.6868 2.46679 22.3446 2.46679C22.7241 2.46679 23.0989 2.53004 23.4689 2.65655C23.8389 2.78305 24.1758 2.98861 24.4794 3.27324C24.783 3.55471 25.0249 3.92789 25.2052 4.39279C25.3854 4.85769 25.4756 5.43011 25.4756 6.11006V6.58444H19.8589V5.6167H24.337C24.337 5.20557 24.2548 4.83871 24.0904 4.51613C23.9291 4.19355 23.6982 3.93896 23.3978 3.75237C23.1005 3.56578 22.7494 3.47249 22.3446 3.47249C21.8987 3.47249 21.5129 3.58317 21.1871 3.80455C20.8646 4.02277 20.6163 4.3074 20.4424 4.65844C20.2684 5.00949 20.1815 5.38583 20.1815 5.78748V6.43264C20.1815 6.98292 20.2763 7.4494 20.4661 7.83207C20.659 8.21157 20.9262 8.50095 21.2678 8.70019C21.6093 8.89627 22.0062 8.99431 22.4585 8.99431C22.7526 8.99431 23.0183 8.95319 23.2555 8.87097C23.4958 8.78558 23.703 8.65908 23.8769 8.49146C24.0508 8.32068 24.1852 8.10879 24.2801 7.85579L25.3617 8.15939C25.2479 8.52625 25.0565 8.84883 24.7877 9.12713C24.5189 9.40228 24.1868 9.61733 23.7915 9.77229C23.3962 9.9241 22.9518 10 22.4585 10Z" fill="white"/>
<path d="M32.3399 4.19355L31.3342 4.47818C31.271 4.31056 31.1777 4.14769 31.0543 3.98956C30.9341 3.82827 30.7697 3.69545 30.561 3.59108C30.3522 3.48672 30.085 3.43453 29.7593 3.43453C29.3133 3.43453 28.9417 3.53732 28.6445 3.74288C28.3503 3.94529 28.2033 4.20304 28.2033 4.51613C28.2033 4.79443 28.3045 5.01423 28.5069 5.17552C28.7093 5.33681 29.0255 5.47122 29.4556 5.57875L30.5372 5.8444C31.1887 6.00253 31.6742 6.24447 31.9936 6.57021C32.313 6.89279 32.4727 7.30866 32.4727 7.81784C32.4727 8.23529 32.3525 8.60847 32.1122 8.93738C31.875 9.26629 31.5429 9.52562 31.116 9.71537C30.689 9.90512 30.1925 10 29.6264 10C28.8832 10 28.2681 9.83871 27.7811 9.51613C27.294 9.19355 26.9857 8.72233 26.856 8.10247L27.9186 7.83681C28.0198 8.22897 28.2112 8.52309 28.4926 8.71916C28.7773 8.91524 29.1489 9.01328 29.6074 9.01328C30.1293 9.01328 30.5436 8.90259 30.8503 8.68121C31.1603 8.45667 31.3152 8.18786 31.3152 7.87476C31.3152 7.62176 31.2267 7.40987 31.0496 7.23909C30.8725 7.06515 30.6005 6.93548 30.2336 6.85009L29.0192 6.56546C28.3519 6.40734 27.8617 6.16224 27.5486 5.83017C27.2387 5.49494 27.0837 5.0759 27.0837 4.57306C27.0837 4.16192 27.1992 3.79823 27.43 3.48197C27.6641 3.16572 27.9819 2.91746 28.3835 2.73719C28.7883 2.55693 29.2469 2.46679 29.7593 2.46679C30.4803 2.46679 31.0464 2.62492 31.4575 2.94118C31.8718 3.25743 32.166 3.67489 32.3399 4.19355Z" fill="white"/>
<path d="M37.1181 10C36.4603 10 35.8831 9.84345 35.3866 9.53036C34.8933 9.21727 34.5074 8.77925 34.2291 8.21632C33.954 7.65338 33.8164 6.99557 33.8164 6.24288C33.8164 5.48387 33.954 4.82132 34.2291 4.25522C34.5074 3.68912 34.8933 3.24953 35.3866 2.93643C35.8831 2.62334 36.4603 2.46679 37.1181 2.46679C37.7759 2.46679 38.3515 2.62334 38.8449 2.93643C39.3414 3.24953 39.7272 3.68912 40.0024 4.25522C40.2807 4.82132 40.4198 5.48387 40.4198 6.24288C40.4198 6.99557 40.2807 7.65338 40.0024 8.21632C39.7272 8.77925 39.3414 9.21727 38.8449 9.53036C38.3515 9.84345 37.7759 10 37.1181 10ZM37.1181 8.99431C37.6178 8.99431 38.0289 8.86622 38.3515 8.61006C38.6741 8.35389 38.9129 8.01708 39.0678 7.59962C39.2228 7.18216 39.3003 6.72992 39.3003 6.24288C39.3003 5.75585 39.2228 5.30202 39.0678 4.8814C38.9129 4.46078 38.6741 4.12081 38.3515 3.86148C38.0289 3.60215 37.6178 3.47249 37.1181 3.47249C36.6184 3.47249 36.2073 3.60215 35.8847 3.86148C35.5621 4.12081 35.3234 4.46078 35.1684 4.8814C35.0134 5.30202 34.936 5.75585 34.936 6.24288C34.936 6.72992 35.0134 7.18216 35.1684 7.59962C35.3234 8.01708 35.5621 8.35389 35.8847 8.61006C36.2073 8.86622 36.6184 8.99431 37.1181 8.99431Z" fill="white"/>
<path d="M42.1288 9.8482V2.56167H43.2104V3.70019H43.3053C43.4571 3.3112 43.7022 3.00917 44.0406 2.79412C44.379 2.5759 44.7853 2.46679 45.2597 2.46679C45.7404 2.46679 46.1405 2.5759 46.4599 2.79412C46.7825 3.00917 47.0339 3.3112 47.2142 3.70019H47.2901C47.4767 3.32385 47.7566 3.02498 48.1297 2.80361C48.5029 2.57906 48.9504 2.46679 49.4722 2.46679C50.1237 2.46679 50.6566 2.67078 51.0709 3.07875C51.4852 3.48355 51.6924 4.11448 51.6924 4.97154V9.8482H50.5728V4.97154C50.5728 4.4339 50.4258 4.04965 50.1316 3.81879C49.8375 3.58792 49.4912 3.47249 49.0927 3.47249C48.5804 3.47249 48.1835 3.62745 47.902 3.93738C47.6206 4.24415 47.4798 4.63314 47.4798 5.10436V9.8482H46.3413V4.85768C46.3413 4.44339 46.2069 4.10974 45.9381 3.85674C45.6693 3.60057 45.323 3.47249 44.8992 3.47249C44.6082 3.47249 44.3363 3.54997 44.0833 3.70493C43.8334 3.8599 43.631 4.07495 43.476 4.35009C43.3242 4.62207 43.2483 4.93675 43.2483 5.29412V9.8482H42.1288Z" fill="white"/>
<path d="M56.7944 10C56.0923 10 55.4866 9.84503 54.9775 9.5351C54.4715 9.22201 54.0809 8.78558 53.8057 8.22581C53.5338 7.66287 53.3978 7.00822 53.3978 6.26186C53.3978 5.5155 53.5338 4.85769 53.8057 4.28843C54.0809 3.716 54.4636 3.27008 54.9537 2.95066C55.4471 2.62808 56.0227 2.46679 56.6805 2.46679C57.06 2.46679 57.4348 2.53004 57.8048 2.65655C58.1748 2.78305 58.5116 2.98861 58.8152 3.27324C59.1188 3.55471 59.3608 3.92789 59.541 4.39279C59.7213 4.85769 59.8114 5.43011 59.8114 6.11006V6.58444H54.1947V5.6167H58.6729C58.6729 5.20557 58.5907 4.83871 58.4262 4.51613C58.2649 4.19355 58.0341 3.93896 57.7336 3.75237C57.4364 3.56578 57.0853 3.47249 56.6805 3.47249C56.2346 3.47249 55.8488 3.58317 55.523 3.80455C55.2004 4.02277 54.9522 4.3074 54.7782 4.65844C54.6043 5.00949 54.5173 5.38583 54.5173 5.78748V6.43264C54.5173 6.98292 54.6122 7.4494 54.8019 7.83207C54.9949 8.21157 55.2621 8.50095 55.6036 8.70019C55.9452 8.89627 56.3421 8.99431 56.7944 8.99431C57.0885 8.99431 57.3541 8.95319 57.5913 8.87097C57.8317 8.78558 58.0388 8.65908 58.2128 8.49146C58.3867 8.32068 58.5211 8.10879 58.616 7.85579L59.6976 8.15939C59.5837 8.52625 59.3924 8.84883 59.1236 9.12713C58.8548 9.40228 58.5227 9.61733 58.1274 9.77229C57.7321 9.9241 57.2877 10 56.7944 10Z" fill="white"/>
<path d="M66.1587 9.8482H63.9575L68.9243 0.132827H71.5714L73.3076 9.8482H71.1065L69.9253 2.35294H69.8494L66.1587 9.8482ZM66.6615 6.02941H71.8608L71.5856 7.63283H66.3864L66.6615 6.02941Z" fill="white"/>
<path d="M81.5536 3.27324C81.5283 3.04238 81.4745 2.83839 81.3923 2.66129C81.3133 2.48102 81.2041 2.32922 81.065 2.20588C80.9258 2.07938 80.7566 1.98292 80.5574 1.91651C80.3582 1.8501 80.1273 1.81689 79.8648 1.81689C79.3683 1.81689 78.9034 1.94023 78.4701 2.18691C78.04 2.43359 77.6731 2.79254 77.3695 3.26376C77.0659 3.73182 76.8588 4.30424 76.7481 4.98102C76.6343 5.65781 76.6343 6.2334 76.7481 6.70778C76.8651 7.18216 77.0849 7.54428 77.4075 7.79412C77.7332 8.0408 78.1523 8.16414 78.6646 8.16414C79.1295 8.16414 79.547 8.08191 79.917 7.91746C80.287 7.74984 80.589 7.51423 80.8231 7.21063C81.0602 6.90702 81.2121 6.54807 81.2785 6.13378L81.6864 6.19545H79.1864L79.4426 4.64896H83.5081L83.2993 5.87286C83.1633 6.72675 82.8645 7.46047 82.4028 8.074C81.941 8.68754 81.3654 9.15876 80.676 9.48767C79.9897 9.81657 79.237 9.98102 78.4179 9.98102C77.5071 9.98102 76.7402 9.7802 76.1172 9.37856C75.4973 8.97375 75.0561 8.39975 74.7936 7.65655C74.5343 6.91018 74.4885 6.02467 74.6561 5C74.7857 4.21252 75.0166 3.51044 75.3487 2.89374C75.6839 2.27388 76.0935 1.74889 76.5773 1.31879C77.0612 0.888678 77.5973 0.561353 78.1855 0.336812C78.7769 0.112271 79.392 0 80.0308 0C80.5811 0 81.0792 0.0806452 81.5251 0.241936C81.9742 0.400063 82.3585 0.624605 82.6779 0.91556C83.0005 1.20651 83.244 1.55281 83.4084 1.95446C83.5761 2.35294 83.6535 2.79254 83.6409 3.27324H81.5536Z" fill="white"/>
<path d="M84.1829 9.8482L85.7958 0.132827H92.3423L92.0576 1.82638H87.5652L87.1857 4.14137H91.3413L91.0567 5.83491H86.9011L86.5216 8.15465H91.033L90.7483 9.8482H84.1829Z" fill="white"/>
<path d="M102.102 0.132827L100.489 9.8482H98.7144L95.5123 3.7334H95.4364L94.4165 9.8482H92.3624L93.9753 0.132827H95.778L98.9659 6.24288H99.0465L100.057 0.132827H102.102Z" fill="white"/>
<path d="M111.797 3.53416H109.747C109.754 3.26218 109.719 3.02182 109.643 2.81309C109.567 2.6012 109.453 2.42094 109.301 2.2723C109.153 2.12366 108.971 2.01139 108.756 1.93548C108.541 1.85642 108.299 1.81689 108.03 1.81689C107.511 1.81689 107.035 1.94655 106.602 2.20588C106.169 2.46521 105.804 2.84156 105.506 3.33491C105.209 3.82511 105.004 4.41809 104.89 5.11385C104.779 5.78431 104.785 6.34567 104.909 6.79791C105.032 7.25016 105.25 7.59171 105.563 7.82258C105.88 8.05028 106.273 8.16414 106.745 8.16414C107.035 8.16414 107.312 8.12777 107.575 8.05503C107.837 7.97913 108.076 7.8716 108.291 7.73245C108.509 7.59013 108.699 7.41777 108.86 7.21537C109.025 7.01297 109.153 6.78368 109.245 6.52751H111.308C111.178 6.97343 110.976 7.40354 110.701 7.81784C110.429 8.23213 110.092 8.60215 109.69 8.92789C109.289 9.25047 108.832 9.50664 108.32 9.69639C107.807 9.88615 107.246 9.98102 106.635 9.98102C105.753 9.98102 104.996 9.77862 104.363 9.37381C103.734 8.96901 103.28 8.38551 103.002 7.62334C102.723 6.86116 102.671 5.94244 102.845 4.86717C103.019 3.82669 103.359 2.94434 103.865 2.22011C104.374 1.49273 104.992 0.94086 105.72 0.564516C106.45 0.188172 107.232 0 108.063 0C108.642 0 109.165 0.0790639 109.634 0.237192C110.102 0.395319 110.5 0.626186 110.829 0.929791C111.161 1.23023 111.411 1.59867 111.579 2.0351C111.746 2.47154 111.819 2.97122 111.797 3.53416Z" fill="white"/>
<path d="M113.274 0.132827H115.575L117.098 4.31689H117.202L120.101 0.132827H122.402L117.819 6.41366L117.245 9.8482H115.205L115.779 6.41366L113.274 0.132827Z" fill="white"/>
</svg>
